<svg version="1.1" viewBox="0 0 1243.2 1243.2" xmlns="http://www.w3.org/2000/svg" xmlns:xlink="http://www.w3.org/1999/xlink">
 <defs>
  <style>.cls-1{fill:url(#linear-gradient);}.cls-2{fill:url(#linear-gradient-3);}.cls-3{fill:url(#linear-gradient-2);}</style>
  <linearGradient id="linear-gradient" x1="238.01" x2="238.01" y1="828.23" y2="-12.87" gradientUnits="userSpaceOnUse">
   <stop stop-color="#0b96fb" offset="0"/>
   <stop stop-color="#00ffda" offset="1"/>
  </linearGradient>
  <linearGradient id="linear-gradient-2" x1="489.75" x2="489.75" y1="828.23" y2="-12.87" gradientTransform="translate(131.84 136.4)" xlink:href="#linear-gradient"/>
  <linearGradient id="linear-gradient-3" x1="867" x2="867" y1="828.23" y2="-12.87" gradientTransform="translate(131.84 136.4)" xlink:href="#linear-gradient"/>
  <linearGradient id="linearGradient4585" x1="36.011" x2="54.803" y1="1.2178" y2="18.66" gradientTransform="matrix(49.997 0 0 49.997 -1648.6 127.19)" gradientUnits="userSpaceOnUse">
   <stop stop-color="#000058" offset="0"/>
   <stop stop-color="#010020" offset="1"/>
  </linearGradient>
  <linearGradient id="linearGradient5928" x1="238.01" x2="238.01" y1="828.23" y2="-12.87" gradientTransform="translate(131.84 136.4)" gradientUnits="userSpaceOnUse" xlink:href="#linear-gradient"/>
 </defs>
 <circle cx="621.58" cy="621.58" r="621.58" fill="url(#linearGradient4585)" style="paint-order:markers fill stroke"/>
 <path class="cls-1" d="m359.63 346.14c11.82 5.49 25.86 0.66 31.8-10.93l0.38-0.73c6.29-12.25 1.13-27.27-11.35-33.08-12.28-5.81-27.03-0.6-32.85 11.68-5.87 12.34-0.66 27.03 11.68 32.9z" fill="url(#linearGradient5928)"/>
 <path class="cls-3" d="m1090.3 816.74h-424.07c-11.58 0-21.01-9.38-21.01-21.01 0-5.79 2.36-11.04 6.18-14.82 3.78-3.83 9.03-6.19 14.82-6.19h385.24c5.79 0 11.09-2.36 14.87-6.19 3.83-3.78 6.19-9.03 6.19-14.82 0-11.63-9.42-21.06-21.06-21.06h-104.11l-281.71-131.06 152.02-95.77c34.02-21.4 53.65-59.64 51.3-99.79-2.36-40.1-26.41-75.79-62.68-93.07l-348.52-165.88c-54.88-26.11-120.8-2.7-146.92 52.18-1.33 2.8-2.01 5.64-2.16 8.54-0.15 3.73 0.74 7.36 2.31 10.65 0.29 0.49 0.44 1.08 0.74 1.57l0.15 0.15c2.16 3.58 5.35 6.63 9.38 8.54h0.05l391.87 186.48-289.37 182.26c-6.82 4.32-10.75 12.03-10.26 20.08 0.49 8.1 5.4 15.27 12.71 18.65l207.3 96.46h-104.26l-121.59-56.55c-21.94-10.21-36.52-31.61-38.09-55.76-1.52-24.15 10.26-47.17 30.78-60.08l187.71-118.25c6.82-4.32 10.75-11.98 10.31-20.03-0.49-8-5.3-15.17-12.57-18.6l-141.23-67.2c-3.04-1.47-6.28-2.16-9.47-2.16-7.95 0-15.61 4.32-19.59 11.78-5.84 11.09-1.28 24.89 10.06 30.24l105 49.97-153.79 96.85c-34.21 21.55-53.85 59.98-51.3 100.29 2.55 40.35 26.9 75.94 63.57 93.02l35.44 16.49h-184.33c-5.79 0-11.04 2.36-14.87 6.19-3.78 3.78-6.14 9.08-6.14 14.87 0 11.58 9.42 21.01 21.01 21.01h316.56c11.58 0 21.01 9.42 21.01 21.01 0 5.79-2.36 11.09-6.18 14.87-3.78 3.78-9.03 6.14-14.82 6.14h-403.9c-5.79 0-11.04 2.36-14.82 6.19-3.83 3.78-6.19 9.03-6.19 14.87 0 11.58 9.42 21.01 21.01 21.01h440.81c11.63 0 21.01 9.42 21.01 21.01 0 5.84-2.36 11.04-6.14 14.87-3.78 3.78-9.08 6.14-14.87 6.14h-271.61c-5.84 0-11.04 2.36-14.87 6.19-3.78 3.78-6.14 9.08-6.14 14.87 0 11.58 9.38 21.01 21.01 21.01h599.61c5.84 0 11.04-2.36 14.87-6.19 3.78-3.78 6.14-9.03 6.14-14.82 0-11.63-9.38-21.06-21.01-21.06h-218.49c-11.63 0-21.06-9.38-21.06-21.01 0-5.79 2.36-11.04 6.19-14.87 3.78-3.78 9.03-6.14 14.87-6.14h387.11c5.84 0 11.09-2.36 14.87-6.14 3.83-3.83 6.19-9.08 6.19-14.87 0-11.63-9.43-21.06-21.06-21.06zm-608.63-203.52 288.98-182.02c6.82-4.27 10.75-11.93 10.31-19.98-0.49-8.05-5.3-15.17-12.57-18.65l-404.68-192.57c19.24-19.19 49.19-25.33 75.06-13.01l348.52 165.87c21.75 10.36 36.13 31.71 37.55 55.76s-10.36 46.98-30.73 59.84l-186.34 117.37c-6.87 4.27-10.8 11.98-10.26 20.08 0.49 8.05 5.35 15.22 12.71 18.6l232.38 108.14h-104.31l-256.63-119.43z" fill="url(#linear-gradient-2)"/>
 <circle class="cls-2" cx="998.84" cy="921.86" r="24.64" fill="url(#linear-gradient-3)"/>
</svg>
